<svg width="53" height="53" viewBox="0 0 53 53" fill="none" xmlns="http://www.w3.org/2000/svg">
<g filter="url(#filter0_d_130_952)">
<path d="M26.5 14C23.1848 14 20.0054 15.317 17.6612 17.6612C15.317 20.0054 14 23.1848 14 26.5C14 29.8152 15.317 32.9946 17.6612 35.3388C20.0054 37.683 23.1848 39 26.5 39C29.8152 39 32.9946 37.683 35.3388 35.3388C37.683 32.9946 39 29.8152 39 26.5C39 23.1848 37.683 20.0054 35.3388 17.6612C32.9946 15.317 29.8152 14 26.5 14V14ZM26.5117 20.002C27.3342 20.002 28.0117 20.6795 28.0117 21.502C28.0117 21.7758 27.9313 22.0299 27.8008 22.252C29.1025 22.7634 30.0303 24.0263 30.0234 25.5078C30.0234 25.5078 30.0117 27.14 30.0117 28.0586C30.0117 28.0045 30.0257 28.1084 30.0977 28.2305C30.1696 28.3525 30.2808 28.5024 30.3945 28.6406C30.6219 28.9168 30.8535 29.1426 30.8535 29.1426C30.9252 29.212 30.9745 29.3012 30.9951 29.3988C31.0156 29.4964 31.0065 29.5979 30.969 29.6903C30.9314 29.7827 30.867 29.8618 30.7841 29.9173C30.7012 29.9728 30.6037 30.0023 30.5039 30.002H28.5098C28.5082 30.6419 28.2 31.2608 27.6562 31.6406C26.9423 32.1385 25.9832 32.1169 25.293 31.5859C24.7927 31.2011 24.5234 30.6092 24.5215 30.002H22.4961C22.396 30.002 22.2982 29.9719 22.2154 29.9158C22.1325 29.8596 22.0685 29.7799 22.0314 29.6869C21.9944 29.5939 21.9861 29.492 22.0077 29.3942C22.0293 29.2965 22.0796 29.2075 22.1523 29.1387C22.1523 29.1387 22.3904 28.9142 22.623 28.6387C22.7394 28.5009 22.8523 28.3503 22.9258 28.2285C22.9992 28.1066 23.0117 28.0036 23.0117 28.0586C23.0117 26.9635 23.0234 25.502 23.0234 25.502C23.0292 24.0329 23.9406 22.777 25.2266 22.2598C25.0933 22.036 25.0117 21.7789 25.0117 21.502C25.0117 20.6795 25.6892 20.002 26.5117 20.002ZM26.5117 21.002C26.2297 21.002 26.0117 21.2199 26.0117 21.502C26.0117 21.784 26.2297 22.002 26.5117 22.002C26.7938 22.002 27.0117 21.784 27.0117 21.502C27.0117 21.2199 26.7938 21.002 26.5117 21.002ZM26.5234 23.0039V23.0059C25.1298 23.0059 24.0289 24.1118 24.0234 25.5078C24.0234 25.5078 24.0117 26.9698 24.0117 28.0586C24.0117 28.3548 23.8982 28.5501 23.7812 28.7441C23.7252 28.837 23.6558 28.916 23.5918 29.002H29.4238C29.3601 28.914 29.292 28.8323 29.2363 28.7383C29.1223 28.545 29.0117 28.3512 29.0117 28.0586C29.0117 27.1322 29.0234 25.502 29.0234 25.502C29.0299 24.1111 27.9171 23.0039 26.5234 23.0039ZM25.5156 30.002C25.5153 30.3058 25.6499 30.6008 25.9023 30.7949C26.2499 31.0615 26.7245 31.0733 27.084 30.8223C27.358 30.6309 27.5117 30.3229 27.5117 30.002H25.5156Z" fill="#FFB800"/>
</g>
<defs>
<filter id="filter0_d_130_952" x="-4" y="-4" width="61" height="61" filterUnits="userSpaceOnUse" color-interpolation-filters="sRGB">
<feFlood flood-opacity="0" result="BackgroundImageFix"/>
<feColorMatrix in="SourceAlpha" type="matrix" values="0 0 0 0 0 0 0 0 0 0 0 0 0 0 0 0 0 0 127 0" result="hardAlpha"/>
<feOffset/>
<feGaussianBlur stdDeviation="9"/>
<feComposite in2="hardAlpha" operator="out"/>
<feColorMatrix type="matrix" values="0 0 0 0 1 0 0 0 0 0.721569 0 0 0 0 0 0 0 0 0.25 0"/>
<feBlend mode="normal" in2="BackgroundImageFix" result="effect1_dropShadow_130_952"/>
<feBlend mode="normal" in="SourceGraphic" in2="effect1_dropShadow_130_952" result="shape"/>
</filter>
</defs>
</svg>
