<svg width="15" height="11" viewBox="0 0 15 11" fill="none" xmlns="http://www.w3.org/2000/svg">
<g clip-path="url(#clip0_869_650)">
<path d="M11.3168 8.90671V3.81514C11.3168 3.72127 11.251 3.64543 11.1697 3.64543H8.52208C8.44073 3.64543 8.375 3.72129 8.375 3.81514V8.90671C8.375 9.00057 8.44075 9.07642 8.52208 9.07642V9.24613C8.44073 9.24613 8.375 9.322 8.375 9.41584V10.0947C8.375 10.1886 8.44075 10.2644 8.52208 10.2644H11.1697C11.2511 10.2644 11.3168 10.1886 11.3168 10.0947V9.41588C11.3168 9.32202 11.251 9.24617 11.1697 9.24617V9.07646C11.251 9.07644 11.3168 9.00057 11.3168 8.90671Z" fill="white"/>
<path d="M8.66858 3.30617H11.022C11.1034 3.30617 11.1691 3.2303 11.1691 3.13646V2.96675C11.1691 1.85102 10.7071 0.785181 9.93355 0.115459C9.88118 0.0701453 9.8094 0.0701453 9.75704 0.115459C8.9835 0.785181 8.52148 1.851 8.52148 2.96675V3.13646C8.5215 3.2303 8.58724 3.30617 8.66858 3.30617Z" fill="white"/>
</g>
<g clip-path="url(#clip1_869_650)">
<path d="M5.88514 8.90671V3.81514C5.88514 3.72127 5.81939 3.64543 5.73806 3.64543H3.09044C3.00909 3.64543 2.94336 3.72129 2.94336 3.81514V8.90671C2.94336 9.00057 3.00911 9.07642 3.09044 9.07642V9.24613C3.00909 9.24613 2.94336 9.322 2.94336 9.41584V10.0947C2.94336 10.1886 3.00911 10.2644 3.09044 10.2644H5.73806C5.81941 10.2644 5.88514 10.1886 5.88514 10.0947V9.41588C5.88514 9.32202 5.81939 9.24617 5.73806 9.24617V9.07646C5.81939 9.07644 5.88514 9.00057 5.88514 8.90671Z" fill="white"/>
<path d="M3.23694 3.30617H5.59038C5.67173 3.30617 5.73746 3.2303 5.73746 3.13646V2.96675C5.73746 1.85102 5.27545 0.785181 4.50191 0.115459C4.44954 0.0701453 4.37776 0.0701453 4.3254 0.115459C3.55186 0.785181 3.08984 1.851 3.08984 2.96675V3.13646C3.08986 3.2303 3.1556 3.30617 3.23694 3.30617Z" fill="white"/>
</g>
<defs>
<clipPath id="clip0_869_650">
<rect width="8.82541" height="10.1832" fill="white" transform="translate(5.43164 0.0808792)"/>
</clipPath>
<clipPath id="clip1_869_650">
<rect width="8.82541" height="10.1832" fill="white" transform="translate(0 0.0808792)"/>
</clipPath>
</defs>
</svg>
