<svg width="20" height="20" viewBox="0 0 20 20" fill="none" xmlns="http://www.w3.org/2000/svg">
<path d="M10 0C4.5 0 0 4.5 0 10C0 15.5 4.5 20 10 20C15.5 20 20 15.5 20 10C20 4.5 15.5 0 10 0ZM9.9375 9.375C11.3125 9.375 12.5 10.5 12.5 11.875C12.5 13.0625 11.875 14 10.625 14.3125V15C10.625 15.375 10.375 15.625 10 15.625C9.625 15.625 9.375 15.375 9.375 15V14.3125C8.75 14.0625 7.5 13.0625 7.5 11.875C7.5 11.5 7.8125 11.25 8.1875 11.25C8.5625 11.25 8.8125 11.5 8.8125 11.875C8.8125 12.5625 9.375 13.125 10.0625 13.125C10.75 13.125 11.3125 12.5625 11.3125 11.875C11.3125 11.1875 10.75 10.625 10.0625 10.625C8.6875 10.625 7.625 9.5 7.625 8.125C7.625 6.9375 8.875 6 9.5 5.6875V5C9.5 4.625 9.75 4.375 10.125 4.375C10.5 4.375 10.75 4.625 10.75 5V5.6875C12 5.9375 12.625 6.9375 12.625 8.125C12.625 8.5 12.375 8.75 12.0625 8.75C11.75 8.75 11.4375 8.5 11.4375 8.125C11.4375 7.4375 10.875 6.875 10.1875 6.875C9.5 6.875 8.9375 7.4375 8.9375 8.125C8.9375 8.8125 9.25 9.375 9.9375 9.375Z" fill="#afff48" fill-opacity="0.75"/>
</svg>
