<svg width="26" height="23" viewBox="0 0 26 23" fill="none" xmlns="http://www.w3.org/2000/svg">
<path d="M20.8003 5.1211L20.6829 8.6657L19.5869 8.5213L17.088 4.63934L13.5672 4.1755L13.6026 2.79302L17.0313 3.24472L17.0769 1.46684L8.75026 0.36986L8.70462 2.14774L12.1332 2.59944L12.0978 3.98192L8.33656 3.48641L6.58066 5.66411L3.14793 5.21187L3.02436 10.0262L1.63278 9.84286L1.72182 6.37386L0.252412 6.18028L0.025264 15.0299L1.49467 15.2234L1.58714 11.6207L2.97872 11.8041L2.84907 16.8554L6.30394 17.3106L7.98487 19.7654L16.6669 20.903L19.3699 17.7357L20.4461 17.8774L20.3761 21.6298L24.8928 22.2248L25.3154 5.76107L20.8003 5.1211ZM23.469 20.2534L21.8788 20.0439L21.9488 16.2915L18.7613 15.8716L16.0579 19.0394L8.66339 18.0705L6.98274 15.6162L4.36411 15.2712L4.5717 7.18333L7.21252 7.53124L8.96842 5.35354L16.3805 6.33003L18.8794 10.212L22.0936 10.6354L22.2104 7.1054L23.8007 7.33079L23.469 20.2534Z" fill="white"/>
</svg>
