<svg width="65" height="65" viewBox="0 0 65 65" fill="none" xmlns="http://www.w3.org/2000/svg">
<g filter="url(#filter0_d_130_941)">
<path d="M32.5 20C25.625 20 20 25.625 20 32.5C20 39.375 25.625 45 32.5 45C39.375 45 45 39.375 45 32.5C45 25.625 39.375 20 32.5 20ZM37.125 35.375C37.625 35.875 37.625 36.625 37.125 37.125C36.625 37.625 35.875 37.625 35.375 37.125L32.5 34.25L29.625 37.125C29.125 37.625 28.375 37.625 27.875 37.125C27.375 36.625 27.375 35.875 27.875 35.375L30.75 32.5L27.875 29.625C27.375 29.125 27.375 28.375 27.875 27.875C28.375 27.375 29.125 27.375 29.625 27.875L32.5 30.75L35.375 27.875C35.875 27.375 36.625 27.375 37.125 27.875C37.625 28.375 37.625 29.125 37.125 29.625L34.25 32.5L37.125 35.375Z" fill="#FF0000"/>
</g>
<defs>
<filter id="filter0_d_130_941" x="0" y="0" width="65" height="65" filterUnits="userSpaceOnUse" color-interpolation-filters="sRGB">
<feFlood flood-opacity="0" result="BackgroundImageFix"/>
<feColorMatrix in="SourceAlpha" type="matrix" values="0 0 0 0 0 0 0 0 0 0 0 0 0 0 0 0 0 0 127 0" result="hardAlpha"/>
<feOffset/>
<feGaussianBlur stdDeviation="10"/>
<feComposite in2="hardAlpha" operator="out"/>
<feColorMatrix type="matrix" values="0 0 0 0 1 0 0 0 0 0 0 0 0 0 0 0 0 0 0.25 0"/>
<feBlend mode="normal" in2="BackgroundImageFix" result="effect1_dropShadow_130_941"/>
<feBlend mode="normal" in="SourceGraphic" in2="effect1_dropShadow_130_941" result="shape"/>
</filter>
</defs>
</svg>
