<svg width="14" height="14" viewBox="0 0 14 14" fill="none" xmlns="http://www.w3.org/2000/svg">
<g clip-path="url(#clip0_887_56)">
<path d="M13.636 11.9034L8.14636 6.41375L1.73261 0H1.23137L1.12902 0.260066C0.858893 0.946504 0.743475 1.64858 0.795291 2.29031C0.854354 3.02181 1.13225 3.65512 1.59898 4.12185L6.60589 9.12877L7.2663 8.46836L11.8952 13.6443C12.3557 14.1048 13.1482 14.1322 13.636 13.6443C14.116 13.1643 14.116 12.3834 13.636 11.9034Z" fill="white"/>
<path d="M4.28525 7.96912L0.363859 11.8905C-0.116078 12.3704 -0.116078 13.1514 0.363859 13.6314C0.819789 14.0873 1.60852 14.1275 2.1047 13.6314L6.02612 9.70993L4.28525 7.96912Z" fill="white"/>
<path d="M13.4054 2.33104L11.181 4.55546L10.6007 3.97517L12.8251 1.75073L12.2448 1.17044L10.0204 3.39485L9.44013 2.81456L11.6646 0.590149L11.0843 0.0098877L8.18287 2.91133C7.82792 3.26628 7.61598 3.73758 7.58601 4.23846C7.57843 4.36536 7.54967 4.49019 7.50195 4.60891L9.38673 6.49369C9.50546 6.44592 9.63031 6.41718 9.75718 6.40961C10.2581 6.37972 10.7294 6.16773 11.0843 5.81278L13.9858 2.91136L13.4054 2.33104Z" fill="white"/>
</g>
<defs>
<clipPath id="clip0_887_56">
<rect width="14" height="14" fill="white"/>
</clipPath>
</defs>
</svg>
