<svg width="14" height="14" viewBox="0 0 14 14" fill="none" xmlns="http://www.w3.org/2000/svg">
<g clip-path="url(#clip0_825_401)">
<path d="M13.6359 11.9034L8.14622 6.41375L1.73247 0H1.23123L1.12888 0.260066C0.858756 0.946504 0.743338 1.64858 0.795154 2.29031C0.854216 3.02181 1.13211 3.65512 1.59884 4.12185L6.60576 9.12877L7.26616 8.46836L11.895 13.6443C12.3555 14.1048 13.1481 14.1322 13.6359 13.6443C14.1159 13.1643 14.1159 12.3834 13.6359 11.9034Z" fill="white"/>
<path d="M4.28528 7.96875L0.36389 11.8901C-0.116048 12.3701 -0.116048 13.151 0.36389 13.631C0.81982 14.0869 1.60855 14.1272 2.10473 13.631L6.02615 9.70956L4.28528 7.96875Z" fill="white"/>
<path d="M13.4053 2.33092L11.1809 4.55534L10.6006 3.97505L12.825 1.75061L12.2447 1.17032L10.0203 3.39473L9.44004 2.81444L11.6645 0.590027L11.0842 0.00976562L8.18278 2.91121C7.82783 3.26616 7.61589 3.73746 7.58592 4.23834C7.57834 4.36524 7.54958 4.49007 7.50186 4.60879L9.38664 6.49357C9.50536 6.4458 9.63022 6.41706 9.75709 6.40949C10.258 6.3796 10.7293 6.1676 11.0842 5.81266L13.9857 2.91124L13.4053 2.33092Z" fill="white"/>
</g>
<defs>
<clipPath id="clip0_825_401">
<rect width="14" height="14" fill="white"/>
</clipPath>
</defs>
</svg>
