<svg width="20" height="23" viewBox="0 0 20 23" fill="none" xmlns="http://www.w3.org/2000/svg">
<path d="M17.7598 6.57533L17.7739 6.55824L13.961 2.44378L12.6866 4.00837L14.6569 6.13421C14.1479 6.41409 13.7376 6.87058 13.4792 7.44446C13.2208 8.01833 13.1262 8.68311 13.2077 9.35252C13.3275 10.3706 13.9078 11.3133 14.6754 11.9005C15.5372 12.5603 16.3078 12.6127 16.9973 12.426L16.8064 19.2929C16.8028 19.477 16.759 19.6533 16.6789 19.8057C16.5988 19.9581 16.485 20.0819 16.3476 20.1659C16.2103 20.2498 16.0538 20.2913 15.8924 20.2865C15.7309 20.2817 15.5696 20.2309 15.423 20.1385C15.3082 20.0666 15.2048 19.9708 15.1187 19.8565C15.0311 19.7417 14.9627 19.6101 14.9174 19.4693C14.8721 19.3285 14.8508 19.1811 14.8547 19.0358L14.9342 16.8165C14.9464 16.3793 14.8824 15.9362 14.7458 15.5127C14.6092 15.0892 14.4028 14.6938 14.1384 14.3493C13.8744 14.0032 13.5576 13.7146 13.2063 13.4997C12.8549 13.2849 12.4759 13.1482 12.0908 13.0973L11.1145 12.9687L11.3426 4.07993C11.3741 2.85439 10.5239 1.74235 9.44704 1.60048L2.6128 0.700118C1.53592 0.558246 0.634574 1.43953 0.603118 2.66507L0.203848 18.2205C0.172391 19.446 1.02257 20.558 2.09945 20.6999L8.93369 21.6003C10.0106 21.7421 10.9119 20.8609 10.9434 19.6353L11.0574 15.1909L12.0338 15.3195C12.1665 15.337 12.2937 15.3839 12.4133 15.4565C12.6427 15.6029 12.8225 15.8389 12.9165 16.117C12.9636 16.2605 12.9858 16.4109 12.9816 16.5593L12.9011 18.7784C12.8895 19.2295 12.9554 19.6763 13.0982 20.1065C13.2354 20.5248 13.4381 20.9094 13.6969 21.2456C13.9599 21.593 14.2764 21.8827 14.628 22.0976C14.9796 22.3126 15.3591 22.4485 15.7445 22.4975C16.1409 22.5498 16.5258 22.5135 16.8916 22.3856C17.2454 22.2649 17.5659 22.0652 17.8383 21.7957C18.1196 21.5228 18.3458 21.1838 18.5038 20.7983C18.6619 20.4129 18.7486 19.9886 18.759 19.5501L19.0391 9.55331C19.0525 8.99499 18.9423 8.42966 18.7188 7.90929C18.4952 7.38892 18.1654 6.93021 17.7598 6.57533ZM2.55576 2.92232L9.39 3.82268L9.2769 8.26721L2.44168 7.36671L2.55576 2.92232ZM2.15649 18.4777L2.38464 9.58891L9.21986 10.4894L8.99268 19.3783L2.15649 18.4777ZM16.0816 10.2785C15.8227 10.2444 15.5774 10.0947 15.3996 9.86216C15.2219 9.62966 15.1263 9.3335 15.1338 9.03882C15.1414 8.74414 15.2515 8.47508 15.44 8.29083C15.6284 8.10658 15.8797 8.02223 16.1387 8.05634C16.3976 8.09046 16.6429 8.24023 16.8207 8.47273C16.9984 8.70522 17.094 9.00138 17.0865 9.29607C17.0789 9.59075 16.9688 9.85981 16.7804 10.0441C16.5919 10.2283 16.3406 10.3127 16.0816 10.2785Z" fill="white"/>
</svg>
