<svg width="10" height="10" viewBox="0 0 10 10" fill="none" xmlns="http://www.w3.org/2000/svg">
<g clip-path="url(#clip0_873_761)">
<path d="M4.92813 4.81703C5.58991 4.81703 6.16295 4.57968 6.63117 4.11139C7.09938 3.64317 7.33673 3.07028 7.33673 2.40844C7.33673 1.74682 7.09938 1.17385 6.63109 0.705487C6.1628 0.23735 5.58983 0 4.92813 0C4.26628 0 3.69339 0.23735 3.22517 0.705564C2.75696 1.17378 2.51953 1.74674 2.51953 2.40844C2.51953 3.07028 2.75696 3.64325 3.22525 4.11146C3.69354 4.5796 4.26651 4.81703 4.92813 4.81703Z" fill="#A0FF41"/>
<path d="M9.14314 7.68948C9.12964 7.49463 9.10233 7.28207 9.06212 7.05762C9.02153 6.83148 8.96927 6.61771 8.90671 6.42232C8.84209 6.22037 8.7542 6.02094 8.64555 5.82982C8.53279 5.63146 8.40034 5.45873 8.25172 5.3166C8.09631 5.1679 7.90604 5.04835 7.686 4.96114C7.46674 4.8744 7.22374 4.83045 6.96381 4.83045C6.86172 4.83045 6.763 4.87234 6.57234 4.99647C6.455 5.07299 6.31775 5.16149 6.16455 5.25938C6.03355 5.34284 5.85609 5.42104 5.6369 5.49184C5.42305 5.56104 5.20592 5.59614 4.99161 5.59614C4.7773 5.59614 4.56024 5.56104 4.34616 5.49184C4.1272 5.42112 3.94974 5.34292 3.81889 5.25945C3.66714 5.16248 3.52982 5.07398 3.41072 4.99639C3.22029 4.87226 3.12149 4.83038 3.01941 4.83038C2.7594 4.83038 2.51648 4.8744 2.29729 4.96122C2.07741 5.04827 1.88705 5.16782 1.73149 5.31667C1.58295 5.45888 1.45042 5.63154 1.33781 5.82982C1.22925 6.02094 1.14136 6.22029 1.07666 6.4224C1.01418 6.61778 0.961914 6.83148 0.921326 7.05762C0.881119 7.28177 0.853806 7.4944 0.840302 7.68971C0.827026 7.88105 0.820312 8.07965 0.820312 8.28022C0.820312 8.80222 0.986252 9.22482 1.31348 9.53648C1.63666 9.84402 2.06429 10 2.5843 10H7.39937C7.91939 10 8.34686 9.84409 8.67012 9.53648C8.99742 9.22504 9.16336 8.80238 9.16336 8.28015C9.16328 8.07866 9.15649 7.87991 9.14314 7.68948Z" fill="#A0FF41"/>
</g>
<defs>
<clipPath id="clip0_873_761">
<rect width="10" height="10" fill="white"/>
</clipPath>
</defs>
</svg>
