<svg width="26" height="25" viewBox="0 0 26 25" fill="none" xmlns="http://www.w3.org/2000/svg">
<g clip-path="url(#clip0_909_135)">
<path d="M10.7806 5.13745L7.56132 1.13738C7.40438 0.94238 7.1105 0.905455 6.9059 1.05503C6.70129 1.20461 6.66255 1.48471 6.81949 1.67971L9.75481 5.32589L6.29964 7.85186L3.36437 4.20564C3.20743 4.01063 2.91354 3.97371 2.70894 4.12329C2.50434 4.27286 2.4656 4.55296 2.62254 4.74797L5.84181 8.74803C5.92082 8.84514 6.03346 8.90337 6.15213 8.91828C6.27081 8.93319 6.39543 8.90482 6.49724 8.83039L10.6942 5.76213C10.8988 5.61256 10.9375 5.33246 10.7806 5.13745Z" fill="white"/>
<path d="M13.6759 6.66253L12.3994 5.07648C11.9286 4.49147 11.047 4.3807 10.4332 4.82943L5.65077 8.3257C5.35265 8.54443 5.16196 8.85937 5.11295 9.21365C5.06407 9.56705 5.16273 9.91746 5.38982 10.1986C5.77142 10.6717 6.26444 11.3008 6.63926 11.7821C6.86512 12.0721 7.19483 12.2591 7.56895 12.3088C7.5736 12.3094 7.57729 12.3099 7.58099 12.3103C7.95274 12.357 8.32036 12.263 8.61848 12.0443L13.4166 8.53648C14.0305 8.08779 14.1467 7.24754 13.6759 6.66253ZM12.8485 7.83048L8.05033 11.3383C7.9496 11.4119 7.81128 11.4368 7.7005 11.4264C7.57639 11.41 7.46702 11.3486 7.3917 11.2519C7.01367 10.7667 6.51741 10.1335 6.1326 9.65639C6.05696 9.5624 6.02388 9.44675 6.04001 9.33013C6.05639 9.21172 6.11998 9.10645 6.21967 9.0336L11.0021 5.53733C11.1049 5.46215 11.2294 5.43464 11.3481 5.44955C11.4668 5.46446 11.5796 5.52178 11.6584 5.6198L12.935 7.20493C13.0105 7.29983 13.0435 7.41631 13.0271 7.53472C13.0107 7.65312 12.9472 7.75752 12.8485 7.83048Z" fill="white"/>
<path d="M15.0868 11.5213L12.6723 8.52121C12.5154 8.3262 12.2215 8.28928 12.0169 8.43886C11.8123 8.58843 11.7736 8.86853 11.9305 9.06353L14.0601 11.7096L11.6542 13.4685L9.52369 10.8223C9.36675 10.6273 9.07286 10.5904 8.86826 10.7399C8.66366 10.8895 8.62492 11.1696 8.78186 11.3646L11.1963 14.3647C11.2753 14.4618 11.388 14.52 11.5067 14.5349C11.6253 14.5498 11.7499 14.5214 11.8527 14.4471L15.0004 12.1459C15.205 11.9963 15.2437 11.7163 15.0868 11.5213Z" fill="white"/>
<path d="M11.4624 7.02103C11.3055 6.82603 11.0116 6.7891 10.807 6.93868L7.65928 9.23988C7.45467 9.38946 7.41593 9.66956 7.57287 9.86456C7.65188 9.96167 7.76452 10.0199 7.8832 10.0348C8.00187 10.0497 8.12649 10.0213 8.2283 9.94692L11.376 7.64571C11.5806 7.49609 11.6194 7.21604 11.4624 7.02103Z" fill="white"/>
<path d="M22.8527 20.1378L20.4383 17.1377C20.2813 16.9427 19.9874 16.9058 19.7828 17.0553L15.5859 20.1236C15.3813 20.2732 15.3426 20.5533 15.4995 20.7483L17.9139 23.7483C17.993 23.8454 18.1056 23.9037 18.2243 23.9186C18.3429 23.9335 18.4676 23.9051 18.5695 23.8298C18.7741 23.6802 18.8128 23.4001 18.6559 23.2051L16.5263 20.5591L19.9815 18.0331L22.1109 20.68C22.2679 20.875 22.5618 20.912 22.7664 20.7624C22.9709 20.6129 23.0097 20.3328 22.8527 20.1378Z" fill="white"/>
<path d="M20.5208 17.2981C20.5029 17.2293 20.469 17.1676 20.4223 17.1167C20.2908 16.9015 19.6985 15.7152 18.4023 12.9761C18.2265 12.6043 17.8876 12.3334 17.4732 12.2337C17.0542 12.1334 16.6177 12.2206 16.2735 12.4722L11.8405 15.713C11.5015 15.9617 11.3015 16.3366 11.2923 16.7444C11.2831 17.1523 11.4657 17.5366 11.7935 17.7989L15.5709 20.8183C15.6414 20.8748 15.7246 20.9077 15.8108 20.9186C15.9304 20.9336 16.0552 20.9043 16.1552 20.8288L20.3521 17.7606C20.5001 17.6524 20.5666 17.4711 20.5208 17.2981ZM15.8857 19.9059L12.3952 17.1167C12.2856 17.0293 12.225 16.9012 12.2279 16.7649C12.2307 16.6286 12.298 16.5032 12.4103 16.4211L16.8434 13.1802C16.945 13.1067 17.0692 13.0746 17.1925 13.0901C17.2101 13.0923 17.2276 13.0954 17.2478 13.0998C17.3272 13.1187 17.473 13.1757 17.5526 13.3439C18.6334 15.629 19.1613 16.7416 19.4636 17.2902L15.8857 19.9059Z" fill="white"/>
<path d="M17.9019 15.0212C17.7449 14.8261 17.4511 14.7892 17.2465 14.9388L14.0987 17.24C13.8941 17.3896 13.8554 17.6697 14.0123 17.8647C14.0913 17.9618 14.204 18.02 14.3226 18.0349C14.4413 18.0498 14.5659 18.0215 14.6678 17.947L17.8155 15.6458C18.0201 15.4963 18.0588 15.2162 17.9019 15.0212Z" fill="white"/>
<path d="M15.9108 6.54884C15.6549 6.51669 15.4199 6.68853 15.3862 6.93239L15.2639 7.81592C15.2302 8.05977 15.4105 8.2838 15.6664 8.31594C15.9222 8.34809 16.1573 8.17626 16.191 7.9324L16.3132 7.04887C16.3469 6.805 16.1667 6.58099 15.9108 6.54884Z" fill="white"/>
<path d="M19.1308 10.549L18.2038 10.4325C17.9479 10.4004 17.7129 10.5722 17.6791 10.8161C17.6454 11.0599 17.8257 11.2839 18.0816 11.3161L19.0086 11.4326C19.2644 11.4647 19.4995 11.2929 19.5332 11.049C19.5669 10.8052 19.3866 10.5811 19.1308 10.549Z" fill="white"/>
<path d="M18.8798 7.95287C18.7229 7.75786 18.429 7.72094 18.2244 7.87052L17.1752 8.63757C16.9706 8.78715 16.9318 9.06725 17.0888 9.26225C17.1678 9.35936 17.2804 9.41759 17.3991 9.4325C17.5178 9.44741 17.6424 9.41904 17.7442 9.34461L18.7934 8.57755C18.998 8.42793 19.0368 8.14787 18.8798 7.95287Z" fill="white"/>
<path d="M9.80923 16.569C9.55337 16.5368 9.31833 16.7087 9.2846 16.9525L9.16239 17.8361C9.12866 18.0799 9.30895 18.3039 9.56481 18.3361C9.82067 18.3682 10.0557 18.1964 10.0894 17.9525L10.2117 17.069C10.2454 16.8252 10.0651 16.6011 9.80923 16.569Z" fill="white"/>
<path d="M7.39445 13.5689L6.46744 13.4525C6.21158 13.4203 5.97653 13.5922 5.9428 13.836C5.90907 14.0799 6.08936 14.3039 6.34522 14.336L7.27224 14.4525C7.5281 14.4847 7.76315 14.3128 7.79688 14.069C7.83061 13.8251 7.65031 13.6011 7.39445 13.5689Z" fill="white"/>
<path d="M8.38766 15.6235C8.23072 15.4285 7.93683 15.3916 7.73223 15.5412L6.683 16.3082C6.47839 16.4578 6.43965 16.7379 6.59659 16.9329C6.6756 17.03 6.78824 17.0882 6.90692 17.1032C7.02559 17.1181 7.15021 17.0897 7.25202 17.0153L8.30125 16.2482C8.50585 16.0986 8.5446 15.8185 8.38766 15.6235Z" fill="white"/>
</g>
<defs>
<clipPath id="clip0_909_135">
<rect width="22.4232" height="21.4065" fill="white" transform="matrix(0.992199 0.124666 -0.137014 0.990569 3.08008 0.442749)"/>
</clipPath>
</defs>
</svg>
